<?xml version="1.0" standalone="no"?>
<!DOCTYPE svg PUBLIC "-//W3C//DTD SVG 20010904//EN"
 "http://www.w3.org/TR/2001/REC-SVG-20010904/DTD/svg10.dtd">
<svg version="1.0" xmlns="http://www.w3.org/2000/svg"
 width="260.000000pt" height="260.000000pt" viewBox="0 0 260.000000 260.000000"
 preserveAspectRatio="xMidYMid meet">
<metadata>
Created by potrace 1.11, written by Peter Selinger 2001-2013
</metadata>
<g transform="translate(0.000000,260.000000) scale(0.100000,-0.100000)"
fill="#000000" stroke="none">
<path d="M1493 2032 c-27 -42 -75 -115 -105 -162 -50 -77 -59 -86 -89 -88 -88
-6 -203 -56 -255 -110 -71 -73 -85 -190 -35 -285 l29 -55 -103 -159 c-57 -87
-140 -214 -184 -283 -45 -69 -86 -132 -91 -140 -34 -50 -149 -230 -158 -246
-10 -18 -5 -19 116 -19 l127 0 132 200 c72 110 138 210 147 222 l16 22 58 -40
c33 -21 83 -45 113 -53 35 -9 53 -19 51 -28 -4 -13 -124 -202 -174 -272 -16
-22 -26 -42 -23 -45 3 -3 64 -5 136 -6 l131 -1 117 178 c64 98 122 178 129
178 24 0 87 38 125 75 58 56 80 108 82 192 2 66 5 78 41 130 21 32 41 62 43
66 2 5 25 41 52 80 45 66 47 73 34 93 -8 12 -37 58 -66 103 -28 45 -55 81 -60
81 -4 0 -20 -21 -35 -46 l-27 -45 -27 48 c-32 55 -62 83 -120 113 -22 11 -40
23 -40 26 0 2 20 35 45 72 25 37 45 72 45 78 0 6 -28 54 -63 107 l-63 96 -51
-77z m-3 -518 c0 -10 26 -14 113 -16 l114 -3 -53 -81 -53 -80 -123 40 c-67 23
-122 45 -122 49 1 5 21 40 45 78 44 69 44 69 62 48 9 -12 17 -27 17 -35z
m-141 -310 c82 -25 131 -49 131 -63 0 -4 -21 -40 -47 -79 -43 -67 -48 -71 -76
-66 -44 7 -84 40 -96 77 -11 31 -14 33 -56 31 -25 -1 -45 2 -45 6 0 18 76 120
89 120 8 0 53 -12 100 -26z"/>
<path d="M3 1773 c-2 -6 -3 -161 -1 -345 3 -315 5 -336 26 -388 68 -171 259
-260 471 -220 140 26 246 116 292 246 19 55 20 82 20 381 0 177 -2 326 -4 330
-4 7 -203 10 -227 4 -3 0 -5 -144 -5 -319 0 -299 -1 -319 -20 -351 -35 -60
-67 -76 -150 -76 -86 0 -118 17 -150 81 -18 36 -19 61 -19 354 l0 315 -114 0
c-79 0 -116 -3 -119 -12z"/>
<path d="M1985 1010 c-71 -110 -176 -271 -232 -358 -57 -86 -103 -159 -103
-162 0 -7 267 -6 273 0 6 7 258 391 302 462 l36 57 -67 101 c-37 55 -70 100
-73 100 -3 0 -64 -90 -136 -200z"/>
<path d="M2321 625 c-49 -74 -87 -136 -83 -138 6 -3 320 -1 348 2 11 1 -160
271 -171 271 -2 0 -45 -61 -94 -135z"/>
</g>
</svg>
